<svg width="116" height="116" viewBox="0 0 116 116" fill="none" xmlns="http://www.w3.org/2000/svg">
<circle cx="58" cy="58" r="58" fill="#3C06BC"/>
<path d="M68.9643 74.6184C68.9978 75.1979 69.0107 75.7781 69.0028 76.3578L89.2209 55.9002C90.261 54.8504 90.2584 53.1496 89.2209 52.0998L58.3757 20.8892C58.0822 21.1907 57.8031 21.5014 57.5384 21.8203M68.9643 74.6184L88.3318 55.0215L88.3329 55.0204C88.8889 54.4592 88.8895 53.5427 88.3318 52.9785L57.5384 21.8203M68.9643 74.6184C68.6643 69.4291 66.7047 64.3027 63.061 60.2005M68.9643 74.6184L67.7543 75.8427C67.7092 70.1611 65.5734 64.4762 61.3268 60.177M57.5384 21.8203C52.4075 28.0009 52.6665 37.2818 58.3859 43.0691L68.3205 53.1213L69.1889 54L68.3205 54.8787L63.061 60.2005M57.5384 21.8203L56.6558 20.9272C51.0416 27.5909 51.2863 37.6636 57.4969 43.9477L67.4314 53.9999L67.4314 54L61.3268 60.177M63.061 60.2005L62.2159 61.0556L61.3268 60.177M63.061 60.2005C62.7888 59.894 62.5072 59.5932 62.2161 59.2985L61.3268 60.177M56.6078 64.9309C62.327 70.7179 62.5862 79.9981 57.4561 86.1787L55.5884 84.2853L55.5875 84.2844L26.6683 55.0227C26.6681 55.0224 26.6679 55.0222 26.6677 55.022C26.1108 54.4564 26.1108 53.5382 26.6677 52.9726C26.6679 52.9724 26.6681 52.9722 26.6683 52.972L36.2841 43.2476L36.2842 43.2476L36.2913 43.2403L36.6211 42.9013L46.0294 33.3816C46.3294 38.5709 48.289 43.6973 51.9327 47.7995L46.6732 53.1213L45.8048 54L46.6732 54.8787L56.6078 64.9309Z" stroke="white" stroke-width="2.5"/>
</svg>
