<svg width="60" height="60" viewBox="0 0 60 60" fill="none" xmlns="http://www.w3.org/2000/svg">
<circle cx="30" cy="30" r="30" fill="#EF4358"/>
<path d="M39 21.1654L38.5529 24.439C37.3906 24.3494 36.5412 24.5885 36.0047 25.1565C35.4682 25.7246 35.1404 26.4869 35.0212 27.4436C34.902 28.4003 34.8722 29.4317 34.9318 30.5379H39V40H31.3553V28.7441C31.3553 25.9936 32.0408 23.9308 33.4118 22.5556C34.8125 21.1804 36.6753 20.717 39 21.1654ZM27.6447 21.1654L27.1976 24.439C26.0353 24.3494 25.1859 24.5885 24.6494 25.1565C24.1129 25.7246 23.7851 26.4869 23.6659 27.4436C23.5467 28.4003 23.5169 29.4317 23.5765 30.5379H27.6447V40H20V28.7441C20 25.9936 20.6855 23.9308 22.0565 22.5556C23.4573 21.1804 25.32 20.717 27.6447 21.1654Z" fill="white"/>
</svg>
