<svg width="128" height="38" viewBox="0 0 128 38" fill="none" xmlns="http://www.w3.org/2000/svg">
<path d="M123.259 0H4.74074C2.1225 0 0 2.12665 0 4.75V33.25C0 35.8734 2.1225 38 4.74074 38H123.259C125.877 38 128 35.8734 128 33.25V4.75C128 2.12665 125.877 0 123.259 0Z" fill="black"/>
<path d="M44.961 9.72799C44.9771 10.0764 44.9224 10.4245 44.8002 10.7512C44.6779 11.0778 44.4907 11.3761 44.2499 11.628C43.981 11.9079 43.6563 12.1278 43.2969 12.2735C42.9375 12.4192 42.5514 12.4873 42.164 12.4735C41.5761 12.4689 41.0027 12.2905 40.5155 11.9608C40.0284 11.6311 39.6492 11.1647 39.4254 10.62C39.2017 10.0753 39.1434 9.4765 39.2578 8.89873C39.3722 8.32095 39.6542 7.78986 40.0686 7.37199C40.3409 7.09344 40.6674 6.87383 41.0278 6.72677C41.3882 6.5797 41.7749 6.5083 42.164 6.51699C42.5648 6.51565 42.9617 6.59648 43.3302 6.75449C43.6733 6.89315 43.9787 7.11127 44.2215 7.39099L43.7189 7.89449C43.5297 7.66895 43.2907 7.49061 43.0208 7.37355C42.751 7.25648 42.4576 7.20391 42.164 7.21999C41.8678 7.21854 41.5744 7.27702 41.3014 7.39193C41.0283 7.50684 40.7812 7.67582 40.5749 7.88873C40.3686 8.10165 40.2074 8.3541 40.1008 8.63097C39.9942 8.90784 39.9446 9.20342 39.9548 9.49999C39.9486 9.94282 40.0734 10.3776 40.3135 10.7494C40.5536 11.1212 40.8983 11.4135 41.3039 11.5893C41.7096 11.7651 42.1582 11.8166 42.5931 11.7372C43.0279 11.6579 43.4296 11.4513 43.7474 11.1435C44.0391 10.8267 44.2074 10.4153 44.2215 9.98449H42.164V9.30049H44.9231C44.9484 9.44158 44.9611 9.58465 44.961 9.72799ZM49.3035 7.35299H46.7435V9.15799H49.076V9.84199H46.7435V11.647H49.3035V12.35H45.985V6.64999H49.3035V7.35299ZM52.4135 12.35H51.6834V7.35299H50.0905V6.64999H54.0443V7.35299H52.4135V12.35ZM56.8318 12.35V6.64999H57.5619V12.35H56.8318ZM60.8046 12.35H60.0745V7.35299H58.4816V6.64999H62.388V7.35299H60.8046V12.35ZM69.793 11.609C69.2387 12.1613 68.4888 12.4713 67.7071 12.4713C66.9254 12.4713 66.1755 12.1613 65.6212 11.609C65.0824 11.0376 64.7822 10.2813 64.7822 9.49524C64.7822 8.70918 65.0824 7.95289 65.6212 7.38149C65.8944 7.10575 66.2193 6.8869 66.5773 6.73755C66.9353 6.58821 67.3193 6.51132 67.7071 6.51132C68.0949 6.51132 68.4788 6.58821 68.8368 6.73755C69.1948 6.8869 69.5198 7.10575 69.793 7.38149C70.3339 7.9518 70.6355 8.7085 70.6355 9.49524C70.6355 10.282 70.3339 11.0387 69.793 11.609ZM66.1616 11.134C66.5721 11.5436 67.1278 11.7735 67.7071 11.7735C68.2864 11.7735 68.8421 11.5436 69.2526 11.134C69.6577 10.6866 69.882 10.1041 69.882 9.49999C69.882 8.8959 69.6577 8.31342 69.2526 7.86599C68.8421 7.45643 68.2864 7.22648 67.7071 7.22648C67.1278 7.22648 66.5721 7.45643 66.1616 7.86599C65.7565 8.31342 65.5321 8.8959 65.5321 9.49999C65.5321 10.1041 65.7565 10.6866 66.1616 11.134ZM71.6609 12.35V6.64999H72.5521L75.3207 11.0865V6.64999H76.0508V12.35H75.2923L72.4004 7.70449V12.35H71.6609Z" fill="white" stroke="white" stroke-width="0.2" stroke-miterlimit="10"/>
<path d="M64.6066 20.6625C63.8104 20.6662 63.0332 20.9062 62.3731 21.3521C61.7129 21.7981 61.1994 22.4299 60.8973 23.168C60.5952 23.9061 60.5181 24.7173 60.6757 25.4992C60.8333 26.2812 61.2186 26.9988 61.7829 27.5616C62.3472 28.1243 63.0652 28.507 63.8464 28.6612C64.6275 28.8155 65.4368 28.7344 66.172 28.4283C66.9072 28.1222 67.5354 27.6047 67.9774 26.9411C68.4193 26.2776 68.6552 25.4977 68.6552 24.7C68.6629 24.166 68.5634 23.636 68.3624 23.1414C68.1614 22.6468 67.8632 22.1977 67.4854 21.821C67.1077 21.4443 66.6581 21.1476 66.1636 20.9486C65.669 20.7495 65.1395 20.6522 64.6066 20.6625ZM64.6066 27.151C64.117 27.1853 63.6284 27.0712 63.2043 26.8236C62.7802 26.576 62.4403 26.2063 62.2287 25.7625C62.0171 25.3187 61.9436 24.8215 62.0179 24.3353C62.0921 23.8492 62.3106 23.3967 62.6449 23.0366C62.9792 22.6765 63.4139 22.4255 63.8924 22.3162C64.371 22.207 64.8713 22.2445 65.3283 22.4239C65.7853 22.6033 66.1779 22.9163 66.455 23.3222C66.7322 23.7281 66.881 24.2082 66.8822 24.7C66.8974 25.0116 66.8503 25.3231 66.7435 25.6162C66.6367 25.9092 66.4724 26.1779 66.2603 26.4064C66.0482 26.6348 65.7927 26.8184 65.5086 26.9462C65.2246 27.0741 64.9179 27.1438 64.6066 27.151ZM55.7794 20.6625C54.9828 20.6644 54.2046 20.9028 53.5432 21.3475C52.8818 21.7923 52.3668 22.4235 52.0632 23.1615C51.7597 23.8994 51.6812 24.7109 51.8378 25.4935C51.9944 26.276 52.3789 26.9946 52.9428 27.5583C53.5067 28.122 54.2248 28.5056 55.0062 28.6606C55.7876 28.8156 56.5973 28.7351 57.3331 28.4292C58.0689 28.1234 58.6976 27.6059 59.14 26.9421C59.5824 26.2784 59.8185 25.4981 59.8185 24.7C59.8262 24.166 59.7266 23.636 59.5257 23.1414C59.3247 22.6468 59.0265 22.1977 58.6487 21.821C58.2709 21.4443 57.8214 21.1476 57.3268 20.9486C56.8322 20.7495 56.3028 20.6522 55.7699 20.6625H55.7794ZM55.7794 27.151C55.2895 27.1872 54.8001 27.0749 54.3748 26.8285C53.9496 26.5822 53.6082 26.2132 53.3951 25.7698C53.182 25.3263 53.1072 24.8288 53.1802 24.3421C53.2533 23.8554 53.4708 23.4021 53.8047 23.041C54.1385 22.6799 54.5731 22.4279 55.0518 22.3178C55.5306 22.2077 56.0313 22.2445 56.4889 22.4235C56.9465 22.6025 57.3397 22.9154 57.6173 23.3214C57.8949 23.7274 58.0441 24.2078 58.0454 24.7C58.0607 25.0116 58.0135 25.3231 57.9067 25.6162C57.7999 25.9092 57.6357 26.1779 57.4236 26.4064C57.2115 26.6348 56.9559 26.8184 56.6719 26.9462C56.3879 27.0741 56.0812 27.1438 55.7699 27.151H55.7794ZM45.2644 21.907V23.617H49.3604C49.2962 24.4224 48.962 25.1824 48.4123 25.7735C48.0025 26.1917 47.5098 26.5193 46.9661 26.7353C46.4223 26.9513 45.8394 27.0508 45.2549 27.0275C44.0479 27.0275 42.8903 26.5471 42.0368 25.6919C41.1833 24.8367 40.7038 23.6769 40.7038 22.4675C40.7038 21.2581 41.1833 20.0982 42.0368 19.2431C42.8903 18.3879 44.0479 17.9075 45.2549 17.9075C46.4096 17.8886 47.5246 18.3293 48.3554 19.133L49.5595 17.9265C48.9987 17.3575 48.3295 16.907 47.5917 16.6019C46.854 16.2967 46.0625 16.143 45.2644 16.15C44.4215 16.1171 43.5806 16.2551 42.7922 16.5556C42.0038 16.8561 41.284 17.313 40.6761 17.8989C40.0681 18.4848 39.5845 19.1877 39.2541 19.9654C38.9237 20.743 38.7534 21.5795 38.7534 22.4247C38.7534 23.2699 38.9237 24.1064 39.2541 24.8841C39.5845 25.6618 40.0681 26.3646 40.6761 26.9505C41.284 27.5364 42.0038 27.9933 42.7922 28.2939C43.5806 28.5944 44.4215 28.7324 45.2644 28.6995C46.076 28.7362 46.886 28.5984 47.6399 28.2952C48.3939 27.9921 49.0743 27.5306 49.6354 26.942C50.6287 25.8485 51.1591 24.411 51.1145 22.933C51.1175 22.5729 51.0858 22.2134 51.0197 21.8595L45.2644 21.907ZM88.225 23.237C87.9777 22.5081 87.5153 21.8716 86.899 21.4119C86.2827 20.9522 85.5416 20.6908 84.7737 20.6625C84.2551 20.6615 83.7417 20.767 83.2654 20.9727C82.7891 21.1783 82.36 21.4797 82.0045 21.8581C81.6491 22.2365 81.3749 22.6839 81.1988 23.1727C81.0228 23.6616 80.9487 24.1813 80.9811 24.7C80.9696 25.2309 81.065 25.7588 81.2617 26.252C81.4583 26.7452 81.7521 27.1936 82.1256 27.5705C82.4991 27.9473 82.9445 28.2449 83.4354 28.4454C83.9262 28.6459 84.4523 28.7453 84.9823 28.7375C85.6455 28.7411 86.2993 28.5798 86.8851 28.2681C87.4708 27.9564 87.9703 27.504 88.3388 26.9515L86.9639 26.0015C86.7588 26.3442 86.4683 26.6277 86.1209 26.8242C85.7735 27.0207 85.3812 27.1235 84.9823 27.1225C84.5716 27.1382 84.1657 27.0297 83.8174 26.8111C83.469 26.5926 83.1944 26.274 83.0291 25.897L88.4241 23.6645L88.225 23.237ZM82.7257 24.586C82.7065 24.2921 82.746 23.9974 82.8419 23.7191C82.9378 23.4407 83.0881 23.1843 83.2842 22.9649C83.4802 22.7455 83.7179 22.5675 83.9835 22.4413C84.249 22.3151 84.537 22.2433 84.8306 22.23C85.1365 22.2098 85.4415 22.2801 85.7078 22.4321C85.9741 22.5841 86.19 22.8111 86.3287 23.085L82.7257 24.586ZM78.3453 28.5H80.1183V16.625H78.3453V28.5ZM75.4439 21.565H75.3776C75.1104 21.2656 74.783 21.0263 74.417 20.8625C74.051 20.6988 73.6546 20.6145 73.2537 20.615C72.2176 20.6653 71.2405 21.1132 70.5249 21.8657C69.8094 22.6183 69.4103 23.6178 69.4103 24.6572C69.4103 25.6966 69.8094 26.6962 70.5249 27.4487C71.2405 28.2013 72.2176 28.6491 73.2537 28.6995C73.6555 28.7063 74.0539 28.6247 74.4208 28.4606C74.7878 28.2964 75.1144 28.0537 75.3776 27.7495H75.4345V28.329C75.4345 29.8775 74.6096 30.704 73.2822 30.704C72.8401 30.6936 72.411 30.5517 72.0497 30.2962C71.6884 30.0408 71.4111 29.6833 71.2531 29.2695L69.7077 29.9155C69.9986 30.6245 70.4943 31.2303 71.1311 31.6552C71.768 32.08 72.5171 32.3046 73.2822 32.3C75.3586 32.3 77.0748 31.0745 77.0748 28.0915V20.9H75.4439V21.565ZM73.4149 27.151C72.8033 27.097 72.2341 26.8154 71.8194 26.3617C71.4048 25.908 71.1748 25.3152 71.1748 24.7C71.1748 24.0848 71.4048 23.492 71.8194 23.0383C72.2341 22.5846 72.8033 22.303 73.4149 22.249C73.7182 22.2646 74.0152 22.3408 74.2886 22.4732C74.562 22.6056 74.8061 22.7915 75.0067 23.0199C75.2073 23.2483 75.3602 23.5146 75.4565 23.8032C75.5527 24.0917 75.5904 24.3966 75.5672 24.7C75.5931 25.0046 75.557 25.3114 75.4612 25.6017C75.3653 25.892 75.2117 26.1598 75.0097 26.3889C74.8076 26.618 74.5612 26.8037 74.2855 26.9347C74.0098 27.0656 73.7104 27.1392 73.4054 27.151H73.4149ZM96.5308 16.625H92.2925V28.5H94.0656V23.997H96.5402C97.0456 24.0334 97.5529 23.965 98.0307 23.7963C98.5085 23.6275 98.9465 23.3619 99.3174 23.0161C99.6882 22.6703 99.984 22.2516 100.186 21.7862C100.388 21.3208 100.493 20.8186 100.493 20.311C100.493 19.8034 100.388 19.3012 100.186 18.8358C99.984 18.3704 99.6882 17.9517 99.3174 17.6059C98.9465 17.26 98.5085 16.9945 98.0307 16.8257C97.5529 16.6569 97.0456 16.5886 96.5402 16.625H96.5308ZM96.5308 22.325H94.0561V18.278H96.5687C97.1081 18.278 97.6254 18.4927 98.0068 18.8748C98.3882 19.257 98.6025 19.7753 98.6025 20.3157C98.6025 20.8562 98.3882 21.3745 98.0068 21.7566C97.6254 22.1388 97.1081 22.3535 96.5687 22.3535L96.5308 22.325ZM107.463 20.615C106.817 20.5763 106.175 20.7275 105.614 21.0498C105.053 21.3722 104.598 21.8517 104.306 22.4295L105.879 23.085C106.035 22.7984 106.27 22.5632 106.556 22.4081C106.842 22.2529 107.167 22.1844 107.491 22.211C107.716 22.1846 107.944 22.2035 108.162 22.2664C108.38 22.3293 108.583 22.435 108.76 22.5774C108.936 22.7198 109.082 22.896 109.19 23.0956C109.298 23.2953 109.365 23.5145 109.388 23.7405V23.864C108.818 23.5619 108.183 23.4053 107.539 23.408C105.842 23.408 104.125 24.358 104.125 26.0775C104.142 26.4441 104.232 26.8037 104.39 27.1349C104.548 27.4661 104.77 27.7622 105.044 28.0058C105.318 28.2494 105.638 28.4354 105.985 28.5529C106.332 28.6704 106.699 28.717 107.065 28.69C107.511 28.7221 107.958 28.6332 108.358 28.4326C108.759 28.232 109.098 27.9272 109.34 27.55H109.397V28.5H111.104V23.9305C111.104 21.85 109.53 20.6435 107.51 20.6435L107.463 20.615ZM107.245 27.1225C106.666 27.1225 105.861 26.828 105.861 26.1155C105.861 25.1655 106.866 24.852 107.757 24.852C108.32 24.8381 108.877 24.9759 109.369 25.251C109.309 25.7653 109.067 26.2408 108.685 26.59C108.303 26.9391 107.809 27.1384 107.292 27.151L107.245 27.1225ZM117.324 20.9L115.295 26.049H115.238L113.133 20.9H111.237L114.394 28.101L112.592 32.1005H114.441L119.296 20.9H117.324ZM101.385 28.5H103.158V16.625H101.385V28.5Z" fill="white"/>
<path d="M9.89853 7.16297C9.5895 7.53452 9.43351 8.01017 9.46238 8.49297V29.507C9.43351 29.9898 9.5895 30.4654 9.89853 30.837L9.9649 30.9035L21.7125 19.1425V18.867L9.9649 7.09647L9.89853 7.16297Z" fill="url(#paint0_linear_331_17758)"/>
<path d="M25.5998 23.066L21.7124 19.1425V18.867L25.5998 14.934L25.6851 14.9815L30.3405 17.632C31.668 18.3825 31.668 19.6175 30.3405 20.3775L25.7041 23.0185L25.5998 23.066Z" fill="url(#paint1_linear_331_17758)"/>
<path d="M25.7136 23.009L21.7124 19L9.89844 30.837C10.169 31.0753 10.5142 31.2114 10.8743 31.2218C11.2343 31.2322 11.5868 31.1163 11.8706 30.894L25.723 23.009" fill="url(#paint2_linear_331_17758)"/>
<path d="M25.7138 14.991L11.8613 7.10598C11.5775 6.88369 11.2251 6.76773 10.865 6.77814C10.5049 6.78855 10.1597 6.92467 9.88916 7.16298L21.7126 19L25.7138 14.991Z" fill="url(#paint3_linear_331_17758)"/>
<path opacity="0.2" d="M25.5998 22.9235L11.8611 30.761C11.5874 30.9661 11.2547 31.0769 10.913 31.0769C10.5712 31.0769 10.2385 30.9661 9.96481 30.761L9.89844 30.8275L9.96481 30.894C10.2379 31.1006 10.5708 31.2123 10.913 31.2123C11.2551 31.2123 11.588 31.1006 11.8611 30.894L25.7135 23.009L25.5998 22.9235Z" fill="black"/>
<path opacity="0.12" d="M9.89853 30.704C9.5895 30.3324 9.43351 29.8568 9.46238 29.374V29.5165C9.43351 29.9993 9.5895 30.475 9.89853 30.8465L9.9649 30.78L9.89853 30.704ZM30.3406 20.235L25.5999 22.9235L25.6852 23.009L30.3406 20.368C30.6048 20.2437 30.8315 20.0517 30.998 19.8115C31.1645 19.5714 31.2648 19.2914 31.2888 19C31.2354 19.2648 31.1222 19.5138 30.9579 19.7279C30.7935 19.942 30.5823 20.1154 30.3406 20.235Z" fill="black"/>
<path opacity="0.25" d="M11.8614 7.239L30.3408 17.765C30.5826 17.8846 30.7937 18.058 30.9581 18.2721C31.1225 18.4862 31.2357 18.7352 31.289 19C31.265 18.7086 31.1647 18.4286 30.9982 18.1885C30.8317 17.9483 30.605 17.7563 30.3408 17.632L11.8614 7.106C10.534 6.3555 9.45312 6.9825 9.45312 8.5025V8.645C9.48157 7.1155 10.5435 6.4885 11.8614 7.239Z" fill="white"/>
<defs>
<linearGradient id="paint0_linear_331_17758" x1="20.6695" y1="8.27447" x2="4.72853" y2="24.1844" gradientUnits="userSpaceOnUse">
<stop stop-color="#00A0FF"/>
<stop offset="0.01" stop-color="#00A1FF"/>
<stop offset="0.26" stop-color="#00BEFF"/>
<stop offset="0.51" stop-color="#00D2FF"/>
<stop offset="0.76" stop-color="#00DFFF"/>
<stop offset="1" stop-color="#00E3FF"/>
</linearGradient>
<linearGradient id="paint1_linear_331_17758" x1="32.0757" y1="19" x2="9.13996" y2="19" gradientUnits="userSpaceOnUse">
<stop stop-color="#FFE000"/>
<stop offset="0.41" stop-color="#FFBD00"/>
<stop offset="0.78" stop-color="#FFA500"/>
<stop offset="1" stop-color="#FF9C00"/>
</linearGradient>
<linearGradient id="paint2_linear_331_17758" x1="23.5423" y1="21.185" x2="1.92036" y2="42.7553" gradientUnits="userSpaceOnUse">
<stop stop-color="#FF3A44"/>
<stop offset="1" stop-color="#C31162"/>
</linearGradient>
<linearGradient id="paint3_linear_331_17758" x1="6.92146" y1="0.170979" x2="16.5734" y2="9.80415" gradientUnits="userSpaceOnUse">
<stop stop-color="#32A071"/>
<stop offset="0.07" stop-color="#2DA771"/>
<stop offset="0.48" stop-color="#15CF74"/>
<stop offset="0.8" stop-color="#06E775"/>
<stop offset="1" stop-color="#00F076"/>
</linearGradient>
</defs>
</svg>
