<svg width="489" height="784" viewBox="0 0 489 784" fill="none" xmlns="http://www.w3.org/2000/svg">
<path d="M153 126H335" stroke="white" stroke-opacity="0.64" stroke-width="3" stroke-linecap="round" stroke-dasharray="8 8"/>
<path d="M145.5 2C145.5 1.17157 146.172 0.5 147 0.5C147.828 0.5 148.5 1.17157 148.5 2H145.5ZM145.5 121V116.75H148.5V121H145.5ZM145.5 108.25V99.75H148.5V108.25H145.5ZM145.5 91.25V82.75H148.5V91.25H145.5ZM145.5 74.25V65.75H148.5V74.25H145.5ZM145.5 57.25V48.75H148.5V57.25H145.5ZM145.5 40.25V31.75H148.5V40.25H145.5ZM145.5 23.25V14.75H148.5V23.25H145.5ZM145.5 6.25V2H148.5V6.25H145.5Z" fill="white" fill-opacity="0.64"/>
<path d="M193 3L157 3" stroke="white" stroke-opacity="0.64" stroke-width="3" stroke-linecap="round" stroke-dasharray="8 8"/>
<path d="M227 199L227 129" stroke="white" stroke-opacity="0.64" stroke-width="3" stroke-linecap="round" stroke-dasharray="8 8"/>
<path d="M194 346L194 424" stroke="white" stroke-opacity="0.64" stroke-width="3" stroke-linecap="round" stroke-dasharray="8 8"/>
<path d="M49 424.5C48.1716 424.5 47.5 425.172 47.5 426C47.5 426.828 48.1716 427.5 49 427.5L49 424.5ZM49 427.5L52.7778 427.5L52.7778 424.5L49 424.5L49 427.5ZM60.3333 427.5L67.8889 427.5L67.8889 424.5L60.3333 424.5L60.3333 427.5ZM75.4444 427.5L83 427.5L83 424.5L75.4444 424.5L75.4444 427.5ZM90.5556 427.5L98.1111 427.5L98.1111 424.5L90.5556 424.5L90.5556 427.5ZM105.667 427.5L113.222 427.5L113.222 424.5L105.667 424.5L105.667 427.5ZM120.778 427.5L128.333 427.5L128.333 424.5L120.778 424.5L120.778 427.5ZM135.889 427.5L143.444 427.5L143.444 424.5L135.889 424.5L135.889 427.5ZM151 427.5L158.556 427.5L158.556 424.5L151 424.5L151 427.5ZM166.111 427.5L173.667 427.5L173.667 424.5L166.111 424.5L166.111 427.5ZM181.222 427.5L185 427.5L185 424.5L181.222 424.5L181.222 427.5Z" fill="white" fill-opacity="0.64"/>
<path d="M46.5 588C46.5 588.828 47.1716 589.5 48 589.5C48.8284 589.5 49.5 588.828 49.5 588L46.5 588ZM49.5 431L49.5 429.5L46.5 429.5L46.5 431L49.5 431ZM49.5 588L49.5 584.075L46.5 584.075L46.5 588L49.5 588ZM49.5 576.225L49.5 568.375L46.5 568.375L46.5 576.225L49.5 576.225ZM49.5 560.525L49.5 552.675L46.5 552.675L46.5 560.525L49.5 560.525ZM49.5 544.825L49.5 536.975L46.5 536.975L46.5 544.825L49.5 544.825ZM49.5 529.125L49.5 521.275L46.5 521.275L46.5 529.125L49.5 529.125ZM49.5 513.425L49.5 505.575L46.5 505.575L46.5 513.425L49.5 513.425ZM49.5 497.725L49.5 489.875L46.5 489.875L46.5 497.725L49.5 497.725ZM49.5 482.025L49.5 474.175L46.5 474.175L46.5 482.025L49.5 482.025ZM49.5 466.325L49.5 458.475L46.5 458.475L46.5 466.325L49.5 466.325ZM49.5 450.625L49.5 442.775L46.5 442.775L46.5 450.625L49.5 450.625ZM49.5 434.925L49.5 431L46.5 431L46.5 434.925L49.5 434.925Z" fill="white" fill-opacity="0.64"/>
<path d="M487.5 558.994C487.497 558.165 486.822 557.497 485.994 557.5C485.165 557.503 484.497 558.178 484.5 559.006L487.5 558.994ZM484.5 559.006L484.516 562.881L487.516 562.868L487.5 558.994L484.5 559.006ZM484.548 570.63L484.58 578.378L487.58 578.366L487.548 570.617L484.548 570.63ZM484.612 586.127L484.644 593.876L487.644 593.864L487.612 586.115L484.612 586.127ZM484.676 601.625L484.708 609.374L487.708 609.362L487.676 601.613L484.676 601.625ZM484.74 617.123L484.772 624.872L487.772 624.859L487.74 617.11L484.74 617.123ZM484.804 632.621L484.836 640.369L487.836 640.357L487.804 632.608L484.804 632.621ZM484.868 648.118L484.9 655.867L487.9 655.855L487.868 648.106L484.868 648.118ZM484.932 663.616L484.964 671.365L487.964 671.353L487.932 663.604L484.932 663.616ZM484.996 679.114L485.028 686.863L488.028 686.85L487.996 679.101L484.996 679.114ZM485.06 694.612L485.092 702.36L488.092 702.348L488.06 694.599L485.06 694.612ZM485.124 710.109L485.156 717.858L488.156 717.846L488.124 710.097L485.124 710.109ZM485.188 725.607L485.204 729.482L488.204 729.469L488.188 725.595L485.188 725.607Z" fill="white" fill-opacity="0.64"/>
<path d="M309 734.5C308.172 734.5 307.5 735.172 307.5 736C307.5 736.828 308.172 737.5 309 737.5V734.5ZM482 734.5H478.068V737.5H482V734.5ZM470.205 734.5H462.341V737.5H470.205V734.5ZM454.477 734.5H446.614V737.5H454.477V734.5ZM438.75 734.5H430.886V737.5H438.75V734.5ZM423.023 734.5H415.159V737.5H423.023V734.5ZM407.295 734.5H399.432V737.5H407.295V734.5ZM391.568 734.5H383.705V737.5H391.568V734.5ZM375.841 734.5H367.977V737.5H375.841V734.5ZM360.114 734.5H352.25V737.5H360.114V734.5ZM344.386 734.5H336.523V737.5H344.386V734.5ZM328.659 734.5H320.795V737.5H328.659V734.5ZM312.932 734.5H309V737.5H312.932V734.5Z" fill="white" fill-opacity="0.64"/>
<path d="M304.5 740C304.5 739.172 303.828 738.5 303 738.5C302.172 738.5 301.5 739.172 301.5 740L304.5 740ZM304.5 784L304.5 780.333L301.5 780.333L301.5 784L304.5 784ZM304.5 773L304.5 765.667L301.5 765.667L301.5 773L304.5 773ZM304.5 758.333L304.5 751L301.5 751L301.5 758.333L304.5 758.333ZM304.5 743.667L304.5 740L301.5 740L301.5 743.667L304.5 743.667Z" fill="white" fill-opacity="0.64"/>
<path d="M206 426.5C205.172 426.5 204.5 425.828 204.5 425C204.5 424.172 205.172 423.5 206 423.5L206 426.5ZM206 423.5L209.708 423.5L209.708 426.5L206 426.5L206 423.5ZM217.125 423.5L224.542 423.5L224.542 426.5L217.125 426.5L217.125 423.5ZM231.958 423.5L239.375 423.5L239.375 426.5L231.958 426.5L231.958 423.5ZM246.792 423.5L254.208 423.5L254.208 426.5L246.792 426.5L246.792 423.5ZM261.625 423.5L269.042 423.5L269.042 426.5L261.625 426.5L261.625 423.5ZM276.458 423.5L283.875 423.5L283.875 426.5L276.458 426.5L276.458 423.5ZM291.292 423.5L295 423.5L295 426.5L291.292 426.5L291.292 423.5Z" fill="white" fill-opacity="0.64"/>
<path d="M296.5 524C296.5 524.828 295.828 525.5 295 525.5C294.172 525.5 293.5 524.828 293.5 524L296.5 524ZM293.5 431L293.5 429.5L296.5 429.5L296.5 431L293.5 431ZM293.5 524L293.5 520.125L296.5 520.125L296.5 524L293.5 524ZM293.5 512.375L293.5 504.625L296.5 504.625L296.5 512.375L293.5 512.375ZM293.5 496.875L293.5 489.125L296.5 489.125L296.5 496.875L293.5 496.875ZM293.5 481.375L293.5 473.625L296.5 473.625L296.5 481.375L293.5 481.375ZM293.5 465.875L293.5 458.125L296.5 458.125L296.5 465.875L293.5 465.875ZM293.5 450.375L293.5 442.625L296.5 442.625L296.5 450.375L293.5 450.375ZM293.5 434.875L293.5 431L296.5 431L296.5 434.875L293.5 434.875Z" fill="white" fill-opacity="0.64"/>
<path d="M1.5 0.500005C0.671573 0.500005 -1.67722e-08 1.17158 0 2.00001C1.67713e-08 2.82843 0.671573 3.50001 1.5 3.50001L1.5 0.500005ZM1.5 3.50001L5.45833 3.50001L5.45833 0.500005L1.5 0.500005L1.5 3.50001ZM13.375 3.5L21.2917 3.5L21.2917 0.500005L13.375 0.500005L13.375 3.5ZM29.2083 3.5L37.125 3.5L37.125 0.500004L29.2083 0.500005L29.2083 3.5ZM45.0417 3.5L49 3.5L49 0.500004L45.0417 0.500004L45.0417 3.5Z" fill="white" fill-opacity="0.64"/>
<path d="M46.5 9C46.5 8.17157 47.1716 7.5 48 7.5C48.8284 7.5 49.5 8.17157 49.5 9L46.5 9ZM46.5 421L46.5 417.038L49.5 417.038L49.5 421L46.5 421ZM46.5 409.115L46.5 401.192L49.5 401.192L49.5 409.115L46.5 409.115ZM46.5 393.269L46.5 385.346L49.5 385.346L49.5 393.269L46.5 393.269ZM46.5 377.423L46.5 369.5L49.5 369.5L49.5 377.423L46.5 377.423ZM46.5 361.577L46.5 353.654L49.5 353.654L49.5 361.577L46.5 361.577ZM46.5 345.731L46.5 337.808L49.5 337.808L49.5 345.731L46.5 345.731ZM46.5 329.885L46.5 321.962L49.5 321.962L49.5 329.885L46.5 329.885ZM46.5 314.038L46.5 306.115L49.5 306.115L49.5 314.038L46.5 314.038ZM46.5 298.192L46.5 290.269L49.5 290.269L49.5 298.192L46.5 298.192ZM46.5 282.346L46.5 274.423L49.5 274.423L49.5 282.346L46.5 282.346ZM46.5 266.5L46.5 258.577L49.5 258.577L49.5 266.5L46.5 266.5ZM46.5 250.654L46.5 242.731L49.5 242.731L49.5 250.654L46.5 250.654ZM46.5 234.808L46.5 226.885L49.5 226.885L49.5 234.808L46.5 234.808ZM46.5 218.961L46.5 211.038L49.5 211.038L49.5 218.961L46.5 218.961ZM46.5 203.115L46.5 195.192L49.5 195.192L49.5 203.115L46.5 203.115ZM46.5 187.269L46.5 179.346L49.5 179.346L49.5 187.269L46.5 187.269ZM46.5 171.423L46.5 163.5L49.5 163.5L49.5 171.423L46.5 171.423ZM46.5 155.577L46.5 147.654L49.5 147.654L49.5 155.577L46.5 155.577ZM46.5 139.731L46.5 131.808L49.5 131.808L49.5 139.731L46.5 139.731ZM46.5 123.885L46.5 115.962L49.5 115.962L49.5 123.885L46.5 123.885ZM46.5 108.038L46.5 100.115L49.5 100.115L49.5 108.038L46.5 108.038ZM46.5 92.1924L46.5 84.2693L49.5 84.2693L49.5 92.1924L46.5 92.1924ZM46.5 76.3462L46.5 68.4232L49.5 68.4232L49.5 76.3462L46.5 76.3462ZM46.5 60.5001L46.5 52.577L49.5 52.577L49.5 60.5001L46.5 60.5001ZM46.5 44.654L46.5 36.7309L49.5 36.7309L49.5 44.654L46.5 44.654ZM46.5 28.8078L46.5 20.8848L49.5 20.8848L49.5 28.8078L46.5 28.8078ZM46.5 12.9617L46.5 9L49.5 9L49.5 12.9617L46.5 12.9617Z" fill="white" fill-opacity="0.64"/>
<path d="M153 126H335" stroke="white" stroke-opacity="0.64" stroke-width="3" stroke-linecap="round" stroke-dasharray="8 8"/>
<path d="M145.5 2C145.5 1.17157 146.172 0.5 147 0.5C147.828 0.5 148.5 1.17157 148.5 2H145.5ZM145.5 121V116.75H148.5V121H145.5ZM145.5 108.25V99.75H148.5V108.25H145.5ZM145.5 91.25V82.75H148.5V91.25H145.5ZM145.5 74.25V65.75H148.5V74.25H145.5ZM145.5 57.25V48.75H148.5V57.25H145.5ZM145.5 40.25V31.75H148.5V40.25H145.5ZM145.5 23.25V14.75H148.5V23.25H145.5ZM145.5 6.25V2H148.5V6.25H145.5Z" fill="white" fill-opacity="0.64"/>
<path d="M193 3L157 3" stroke="white" stroke-opacity="0.64" stroke-width="3" stroke-linecap="round" stroke-dasharray="8 8"/>
<path d="M227 199L227 129" stroke="white" stroke-opacity="0.64" stroke-width="3" stroke-linecap="round" stroke-dasharray="8 8"/>
<path d="M194 346L194 424" stroke="white" stroke-opacity="0.64" stroke-width="3" stroke-linecap="round" stroke-dasharray="8 8"/>
<path d="M49 424.5C48.1716 424.5 47.5 425.172 47.5 426C47.5 426.828 48.1716 427.5 49 427.5L49 424.5ZM49 427.5L52.7778 427.5L52.7778 424.5L49 424.5L49 427.5ZM60.3333 427.5L67.8889 427.5L67.8889 424.5L60.3333 424.5L60.3333 427.5ZM75.4444 427.5L83 427.5L83 424.5L75.4444 424.5L75.4444 427.5ZM90.5556 427.5L98.1111 427.5L98.1111 424.5L90.5556 424.5L90.5556 427.5ZM105.667 427.5L113.222 427.5L113.222 424.5L105.667 424.5L105.667 427.5ZM120.778 427.5L128.333 427.5L128.333 424.5L120.778 424.5L120.778 427.5ZM135.889 427.5L143.444 427.5L143.444 424.5L135.889 424.5L135.889 427.5ZM151 427.5L158.556 427.5L158.556 424.5L151 424.5L151 427.5ZM166.111 427.5L173.667 427.5L173.667 424.5L166.111 424.5L166.111 427.5ZM181.222 427.5L185 427.5L185 424.5L181.222 424.5L181.222 427.5Z" fill="white" fill-opacity="0.64"/>
<path d="M46.5 588C46.5 588.828 47.1716 589.5 48 589.5C48.8284 589.5 49.5 588.828 49.5 588L46.5 588ZM49.5 431L49.5 429.5L46.5 429.5L46.5 431L49.5 431ZM49.5 588L49.5 584.075L46.5 584.075L46.5 588L49.5 588ZM49.5 576.225L49.5 568.375L46.5 568.375L46.5 576.225L49.5 576.225ZM49.5 560.525L49.5 552.675L46.5 552.675L46.5 560.525L49.5 560.525ZM49.5 544.825L49.5 536.975L46.5 536.975L46.5 544.825L49.5 544.825ZM49.5 529.125L49.5 521.275L46.5 521.275L46.5 529.125L49.5 529.125ZM49.5 513.425L49.5 505.575L46.5 505.575L46.5 513.425L49.5 513.425ZM49.5 497.725L49.5 489.875L46.5 489.875L46.5 497.725L49.5 497.725ZM49.5 482.025L49.5 474.175L46.5 474.175L46.5 482.025L49.5 482.025ZM49.5 466.325L49.5 458.475L46.5 458.475L46.5 466.325L49.5 466.325ZM49.5 450.625L49.5 442.775L46.5 442.775L46.5 450.625L49.5 450.625ZM49.5 434.925L49.5 431L46.5 431L46.5 434.925L49.5 434.925Z" fill="white" fill-opacity="0.64"/>
<path d="M487.5 558.994C487.497 558.165 486.822 557.497 485.994 557.5C485.165 557.503 484.497 558.178 484.5 559.006L487.5 558.994ZM484.5 559.006L484.516 562.881L487.516 562.868L487.5 558.994L484.5 559.006ZM484.548 570.63L484.58 578.378L487.58 578.366L487.548 570.617L484.548 570.63ZM484.612 586.127L484.644 593.876L487.644 593.864L487.612 586.115L484.612 586.127ZM484.676 601.625L484.708 609.374L487.708 609.362L487.676 601.613L484.676 601.625ZM484.74 617.123L484.772 624.872L487.772 624.859L487.74 617.11L484.74 617.123ZM484.804 632.621L484.836 640.369L487.836 640.357L487.804 632.608L484.804 632.621ZM484.868 648.118L484.9 655.867L487.9 655.855L487.868 648.106L484.868 648.118ZM484.932 663.616L484.964 671.365L487.964 671.353L487.932 663.604L484.932 663.616ZM484.996 679.114L485.028 686.863L488.028 686.85L487.996 679.101L484.996 679.114ZM485.06 694.612L485.092 702.36L488.092 702.348L488.06 694.599L485.06 694.612ZM485.124 710.109L485.156 717.858L488.156 717.846L488.124 710.097L485.124 710.109ZM485.188 725.607L485.204 729.482L488.204 729.469L488.188 725.595L485.188 725.607Z" fill="white" fill-opacity="0.64"/>
<path d="M309 734.5C308.172 734.5 307.5 735.172 307.5 736C307.5 736.828 308.172 737.5 309 737.5V734.5ZM482 734.5H478.068V737.5H482V734.5ZM470.205 734.5H462.341V737.5H470.205V734.5ZM454.477 734.5H446.614V737.5H454.477V734.5ZM438.75 734.5H430.886V737.5H438.75V734.5ZM423.023 734.5H415.159V737.5H423.023V734.5ZM407.295 734.5H399.432V737.5H407.295V734.5ZM391.568 734.5H383.705V737.5H391.568V734.5ZM375.841 734.5H367.977V737.5H375.841V734.5ZM360.114 734.5H352.25V737.5H360.114V734.5ZM344.386 734.5H336.523V737.5H344.386V734.5ZM328.659 734.5H320.795V737.5H328.659V734.5ZM312.932 734.5H309V737.5H312.932V734.5Z" fill="white" fill-opacity="0.64"/>
<path d="M304.5 740C304.5 739.172 303.828 738.5 303 738.5C302.172 738.5 301.5 739.172 301.5 740L304.5 740ZM304.5 784L304.5 780.333L301.5 780.333L301.5 784L304.5 784ZM304.5 773L304.5 765.667L301.5 765.667L301.5 773L304.5 773ZM304.5 758.333L304.5 751L301.5 751L301.5 758.333L304.5 758.333ZM304.5 743.667L304.5 740L301.5 740L301.5 743.667L304.5 743.667Z" fill="white" fill-opacity="0.64"/>
<path d="M206 426.5C205.172 426.5 204.5 425.828 204.5 425C204.5 424.172 205.172 423.5 206 423.5L206 426.5ZM206 423.5L209.708 423.5L209.708 426.5L206 426.5L206 423.5ZM217.125 423.5L224.542 423.5L224.542 426.5L217.125 426.5L217.125 423.5ZM231.958 423.5L239.375 423.5L239.375 426.5L231.958 426.5L231.958 423.5ZM246.792 423.5L254.208 423.5L254.208 426.5L246.792 426.5L246.792 423.5ZM261.625 423.5L269.042 423.5L269.042 426.5L261.625 426.5L261.625 423.5ZM276.458 423.5L283.875 423.5L283.875 426.5L276.458 426.5L276.458 423.5ZM291.292 423.5L295 423.5L295 426.5L291.292 426.5L291.292 423.5Z" fill="white" fill-opacity="0.64"/>
<path d="M296.5 524C296.5 524.828 295.828 525.5 295 525.5C294.172 525.5 293.5 524.828 293.5 524L296.5 524ZM293.5 431L293.5 429.5L296.5 429.5L296.5 431L293.5 431ZM293.5 524L293.5 520.125L296.5 520.125L296.5 524L293.5 524ZM293.5 512.375L293.5 504.625L296.5 504.625L296.5 512.375L293.5 512.375ZM293.5 496.875L293.5 489.125L296.5 489.125L296.5 496.875L293.5 496.875ZM293.5 481.375L293.5 473.625L296.5 473.625L296.5 481.375L293.5 481.375ZM293.5 465.875L293.5 458.125L296.5 458.125L296.5 465.875L293.5 465.875ZM293.5 450.375L293.5 442.625L296.5 442.625L296.5 450.375L293.5 450.375ZM293.5 434.875L293.5 431L296.5 431L296.5 434.875L293.5 434.875Z" fill="white" fill-opacity="0.64"/>
<path d="M1.5 0.500005C0.671573 0.500005 -1.75346e-08 1.17158 0 2.00001C1.75336e-08 2.82843 0.671573 3.50001 1.5 3.50001L1.5 0.500005ZM1.5 3.50001L5.45833 3.50001L5.45833 0.500005L1.5 0.500005L1.5 3.50001ZM13.375 3.5L21.2917 3.5L21.2917 0.500005L13.375 0.500005L13.375 3.5ZM29.2083 3.5L37.125 3.5L37.125 0.500004L29.2083 0.500005L29.2083 3.5ZM45.0417 3.5L49 3.5L49 0.500004L45.0417 0.500004L45.0417 3.5Z" fill="white" fill-opacity="0.64"/>
<path d="M46.5 9C46.5 8.17157 47.1716 7.5 48 7.5C48.8284 7.5 49.5 8.17157 49.5 9L46.5 9ZM46.5 421L46.5 417.038L49.5 417.038L49.5 421L46.5 421ZM46.5 409.115L46.5 401.192L49.5 401.192L49.5 409.115L46.5 409.115ZM46.5 393.269L46.5 385.346L49.5 385.346L49.5 393.269L46.5 393.269ZM46.5 377.423L46.5 369.5L49.5 369.5L49.5 377.423L46.5 377.423ZM46.5 361.577L46.5 353.654L49.5 353.654L49.5 361.577L46.5 361.577ZM46.5 345.731L46.5 337.808L49.5 337.808L49.5 345.731L46.5 345.731ZM46.5 329.885L46.5 321.962L49.5 321.962L49.5 329.885L46.5 329.885ZM46.5 314.038L46.5 306.115L49.5 306.115L49.5 314.038L46.5 314.038ZM46.5 298.192L46.5 290.269L49.5 290.269L49.5 298.192L46.5 298.192ZM46.5 282.346L46.5 274.423L49.5 274.423L49.5 282.346L46.5 282.346ZM46.5 266.5L46.5 258.577L49.5 258.577L49.5 266.5L46.5 266.5ZM46.5 250.654L46.5 242.731L49.5 242.731L49.5 250.654L46.5 250.654ZM46.5 234.808L46.5 226.885L49.5 226.885L49.5 234.808L46.5 234.808ZM46.5 218.961L46.5 211.038L49.5 211.038L49.5 218.961L46.5 218.961ZM46.5 203.115L46.5 195.192L49.5 195.192L49.5 203.115L46.5 203.115ZM46.5 187.269L46.5 179.346L49.5 179.346L49.5 187.269L46.5 187.269ZM46.5 171.423L46.5 163.5L49.5 163.5L49.5 171.423L46.5 171.423ZM46.5 155.577L46.5 147.654L49.5 147.654L49.5 155.577L46.5 155.577ZM46.5 139.731L46.5 131.808L49.5 131.808L49.5 139.731L46.5 139.731ZM46.5 123.885L46.5 115.962L49.5 115.962L49.5 123.885L46.5 123.885ZM46.5 108.038L46.5 100.115L49.5 100.115L49.5 108.038L46.5 108.038ZM46.5 92.1924L46.5 84.2693L49.5 84.2693L49.5 92.1924L46.5 92.1924ZM46.5 76.3462L46.5 68.4232L49.5 68.4232L49.5 76.3462L46.5 76.3462ZM46.5 60.5001L46.5 52.577L49.5 52.577L49.5 60.5001L46.5 60.5001ZM46.5 44.654L46.5 36.7309L49.5 36.7309L49.5 44.654L46.5 44.654ZM46.5 28.8078L46.5 20.8848L49.5 20.8848L49.5 28.8078L46.5 28.8078ZM46.5 12.9617L46.5 9L49.5 9L49.5 12.9617L46.5 12.9617Z" fill="white" fill-opacity="0.64"/>
</svg>
