<svg width="500" height="155" viewBox="0 0 500 155" fill="none" xmlns="http://www.w3.org/2000/svg">
<g clip-path="url(#clip0_248_18)">
<path d="M381.2 49L432.11 78.4V117.59L483.03 88.19L432.11 58.8V39.2L500 78.39V98L432.11 137.19L415.14 127.39V88.2L364.22 58.8V39.2L432.11 0L500 39.2V58.8L432.11 19.6L381.2 49Z" fill="white"/>
<path d="M355.54 76.08V94.77H343.14V76.08H334.46V94.77H322.06V78.25H313.38V94.77H292.38V80.42H283.69V94.77H258.83V49H250.14V103.45H364.22V76.08H355.54Z" fill="white"/>
<path d="M234.34 94.77H207.65V76.08H190.98V84.77H198.96L198.97 94.77H170.26V103.45H243.03V76.08H234.34V94.77Z" fill="white"/>
<path d="M154.46 108.91H132.38V117.59H163.14V76.08H154.46V108.91Z" fill="white"/>
<path d="M98.89 94.77H70.16V49H61.48V94.77H8.69V84.77H0V103.45H107.57V76.08H98.89V94.77Z" fill="white"/>
<path d="M221.92 108.91H213.23V117.6H221.92V108.91Z" fill="white"/>
<path d="M234.35 108.91H225.66V117.6H234.35V108.91Z" fill="white"/>
<path d="M86.41 64.67H77.72V73.36H86.41V64.67Z" fill="white"/>
<path d="M98.84 64.67H90.15V73.36H98.84V64.67Z" fill="white"/>
<path d="M283.7 108.91H275.01V117.6H283.7V108.91Z" fill="white"/>
<path d="M41.05 80.91H34.68V78.55L36.19 76.07H42.14V72.21H34.02L30.82 77.46V80.91H28.02V84.77H41.05V80.91Z" fill="white"/>
<path d="M20.82 146.08L4.14001 142.47C3.94376 142.386 3.7796 142.241 3.67157 142.057C3.56355 141.873 3.51733 141.659 3.53969 141.446C3.56204 141.234 3.6518 141.034 3.79581 140.877C3.93982 140.719 4.13053 140.611 4.34001 140.57H22.56V137.19H4.34001C3.26277 137.182 2.22114 137.575 1.41768 138.293C0.614221 139.011 0.106368 140.001 -0.00712009 141.073C-0.120608 142.144 0.16838 143.219 0.803648 144.089C1.43892 144.959 2.37505 145.562 3.43001 145.78L20.11 149.39C20.3201 149.444 20.5068 149.565 20.6421 149.735C20.7774 149.904 20.8539 150.113 20.86 150.33V150.61C20.86 150.875 20.7547 151.13 20.5671 151.317C20.3796 151.505 20.1252 151.61 19.86 151.61H1.69001V155H19.9C21.052 155 22.1569 154.543 22.9724 153.729C23.7879 152.916 24.2474 151.812 24.25 150.66V150.38C24.2593 149.378 23.9233 148.404 23.2987 147.621C22.674 146.838 21.7987 146.294 20.82 146.08Z" fill="white"/>
<path d="M54.49 137.19H40V155H43.38V147.81H54.49C55.8519 147.751 57.1383 147.168 58.0811 146.183C59.0238 145.199 59.5501 143.888 59.5501 142.525C59.5501 141.162 59.0238 139.851 58.0811 138.867C57.1383 137.882 55.8519 137.299 54.49 137.24V137.19ZM54.49 144.38H43.42V140.57H54.49C54.9714 140.605 55.4217 140.821 55.7504 141.174C56.0792 141.528 56.2619 141.992 56.2619 142.475C56.2619 142.958 56.0792 143.422 55.7504 143.776C55.4217 144.129 54.9714 144.345 54.49 144.38Z" fill="white"/>
<path d="M114.07 137.19H98.71V155H114.07C115.236 155 116.391 154.77 117.468 154.324C118.546 153.878 119.525 153.224 120.349 152.399C121.174 151.575 121.828 150.596 122.274 149.518C122.72 148.441 122.95 147.286 122.95 146.12C122.95 144.954 122.72 143.799 122.274 142.722C121.828 141.644 121.174 140.665 120.349 139.841C119.525 139.016 118.546 138.362 117.468 137.916C116.391 137.47 115.236 137.24 114.07 137.24V137.19ZM114.07 151.57H102.07V140.57H114.07C115.529 140.57 116.928 141.149 117.959 142.181C118.991 143.212 119.57 144.611 119.57 146.07C119.57 147.529 118.991 148.928 117.959 149.959C116.928 150.991 115.529 151.57 114.07 151.57Z" fill="white"/>
<path d="M75.56 140.57H77.55V151.57H75.56V154.95H82.92V151.57H80.93V140.57H82.92V137.19H75.56V140.57Z" fill="white"/>
<path d="M161.3 137.19H138.74V154.95H161.3V151.57H142.13V140.57H161.3V137.19Z" fill="white"/>
<path d="M156.32 144.38H145.97V147.76H156.32V144.38Z" fill="white"/>
<path d="M285.84 137.19H263.28V154.95H285.84V151.57H266.67V140.57H285.84V137.19Z" fill="white"/>
<path d="M280.86 144.38H270.51V147.76H280.86V144.38Z" fill="white"/>
<path d="M360.84 137.19V144.38H343.36V137.19H339.97V154.95H343.36V147.76H360.84V154.95H364.22V137.19H360.84Z" fill="white"/>
<path d="M219.86 140.57H231.98V154.95H235.37V140.57H247.49V137.19H219.86V140.57Z" fill="white"/>
<path d="M191.54 137.19H177.09V155H180.47V147.81H185.24L191.68 155H196.22L189.78 147.81H191.53C192.243 147.841 192.956 147.727 193.624 147.476C194.292 147.224 194.903 146.84 195.418 146.346C195.934 145.852 196.345 145.259 196.625 144.602C196.905 143.946 197.05 143.239 197.05 142.525C197.05 141.811 196.905 141.104 196.625 140.448C196.345 139.791 195.934 139.198 195.418 138.704C194.903 138.21 194.292 137.826 193.624 137.574C192.956 137.323 192.243 137.209 191.53 137.24L191.54 137.19ZM191.54 144.38H180.47V140.58H191.54C192.021 140.615 192.472 140.831 192.8 141.184C193.129 141.538 193.312 142.002 193.312 142.485C193.312 142.968 193.129 143.432 192.8 143.786C192.472 144.139 192.021 144.355 191.54 144.39V144.38Z" fill="white"/>
<path d="M301.63 146.07C301.633 148.424 302.569 150.681 304.234 152.346C305.899 154.011 308.156 154.947 310.51 154.95H324.18V151.57H310.51C309.051 151.57 307.652 150.991 306.621 149.959C305.589 148.928 305.01 147.529 305.01 146.07C305.01 144.611 305.589 143.212 306.621 142.181C307.652 141.149 309.051 140.57 310.51 140.57H324.18V137.19H310.51C308.156 137.193 305.899 138.129 304.234 139.794C302.569 141.459 301.633 143.716 301.63 146.07Z" fill="white"/>
</g>
<defs>
<clipPath id="clip0_248_18">
<rect width="500" height="154.95" fill="white"/>
</clipPath>
</defs>
</svg>
